<svg xmlns="http://www.w3.org/2000/svg" viewBox="0 0 1024 1024">
  <title>people</title>
  <defs>
    <style type="text/css"></style>
  </defs>
  <path d="M639.983382 1007.677159V1007.869134H384.016618v-0.191975l127.983382-127.983382z" fill="#ED5565" p-id="2065">
  </path>
  <path
    d="M416.012463 667.913276a240.544767 240.544767 0 0 0 191.975074 0V751.90237s-15.997923 47.993768-95.987537 47.993768-95.987537-47.993768-95.987537-47.993768v-83.989094z"
    fill="#EAC6BB" p-id="2066"></path>
  <path
    d="M416.012463 751.90237s15.997923 47.993768 95.987537 47.993768 95.987537-47.993768 95.987537-47.993768h127.983382c53.113104 0 95.987537 42.874433 95.987536 95.987537v143.981305c0 8.78286-7.199065 15.997923-15.997922 15.997922H639.983382v-0.191975l-127.983382-127.983382-127.983382 127.983382V1007.869134H208.039467c-8.798858 0-15.997923-7.215063-15.997922-15.997922v-143.981305c0-53.113104 42.874433-95.987537 95.987536-95.987537h127.983382z"
    fill="#48CFAD" p-id="2067"></path>
  <path
    d="M735.970919 751.90237h-63.991691c53.113104 0 95.987537 42.874433 95.987536 95.987537v143.981305c0 8.78286-7.199065 15.997923-15.997922 15.997922h63.991691c8.798858 0 15.997923-7.215063 15.997922-15.997922v-143.981305c0-53.113104-42.874433-95.987537-95.987536-95.987537z"
    fill="#37BC9B" p-id="2068"></path>
  <path
    d="M751.968842 398.828215c-216.131937-8.814855-383.950146-76.646048-383.950147-159.035351V89.428388l-1.279834-2.255707A287.018732 287.018732 0 0 1 512 47.801793c159.019352 0 287.96261 128.959255 287.96261 287.96261v63.991691c-16.317881 0-32.315804-0.303961-47.993768-0.927879z"
    fill="#FFCE54" p-id="2069"></path>
  <path
    d="M512 47.801793c-10.766602 0-21.357227 0.751902-31.80387 1.903753C624.049451 65.735465 735.970919 187.655634 735.970919 335.764403v62.247918c5.31131 0.319958 10.622621 0.591923 15.997923 0.815894 15.677964 0.623919 31.675887 0.943877 47.993768 0.943877v-63.991691c0-159.019352-128.943258-287.978608-287.96261-287.978608z"
    fill="#F6BB42" p-id="2070"></path>
  <path
    d="M368.018695 239.776866c0 82.389302 167.81821 150.236493 383.950147 159.035351V447.941838c0 98.355229-59.192314 182.856257-143.981305 219.971438a240.544767 240.544767 0 0 1-191.975074 0c-84.788991-37.115181-143.981305-121.616209-143.981305-219.971438v-72.326609c55.99273-19.853422 95.987537-73.126505 95.987537-135.838363z"
    fill="#EAC6BB" p-id="2071"></path>
  <path
    d="M687.97715 394.348796V447.941838c0 98.355229-59.192314 182.856257-143.981304 219.971438-20.045397 8.718868-41.594599 14.590106-63.991692 17.597715 10.494637 1.407817 21.117258 2.399688 31.995846 2.399688 34.075575 0 66.551359-7.215063 95.987537-19.997403 84.788991-37.115181 143.981305-121.616209 143.981305-219.971438v-49.113623a1118.782733 1118.782733 0 0 1-63.991692-4.479419zM368.274662 243.840339c-0.07999-1.343826-0.255967-2.687651-0.255967-4.063473 0 1.279834-0.127983 2.527672-0.159979 3.807506 0.143981 0.095988 0.271965 0.191975 0.415946 0.255967z"
    fill="#D3B1A9" p-id="2072"></path>
  <path
    d="M607.987537 667.913276c84.788991-37.115181 143.981305-121.616209 143.981305-219.971438v-49.113623c15.677964 0.623919 31.675887 0.943877 47.993768 0.943877V655.914834a31.995846 31.995846 0 0 1-31.995846 31.995845H607.987537v-19.997403zM272.031158 447.941838c0 98.355229 59.192314 182.856257 143.981305 219.971438V687.910679H256.033236a31.995846 31.995846 0 0 1-31.995846-31.995845V383.758171c16.797819 0 32.955721-2.879626 47.993768-8.15894V447.941838z"
    fill="#EDAB37" p-id="2073"></path>
  <path
    d="M224.03739 383.758171v-47.993768c0-106.05023 57.272564-198.694201 142.701471-248.591722l1.279834 2.255707v150.348478c0 62.711857-39.994807 115.98494-95.987537 135.822365-15.038047 5.295312-31.195949 8.158941-47.993768 8.15894z"
    fill="#F6BB42" p-id="2074"></path>
  <path
    d="M192.041545 863.935823a15.997923 15.997923 0 0 1-15.997923-15.997922 112.145439 112.145439 0 0 1 112.017455-112.017456 15.997923 15.997923 0 1 1 0 31.995846A80.117597 80.117597 0 0 0 208.039467 847.937901a15.997923 15.997923 0 0 1-15.997922 15.997922zM831.958455 863.919825a15.997923 15.997923 0 0 1-15.997922-15.997922c0-44.106273-35.883341-79.989614-79.989614-79.989614a15.997923 15.997923 0 1 1 0-31.995846c61.735984 0 111.985459 50.249475 111.985459 111.98546a15.997923 15.997923 0 0 1-15.997923 15.997922z"
    p-id="2075"></path>
  <path
    d="M416.012463 767.932289l-127.951386-0.015998a15.997923 15.997923 0 1 1 0-31.995846l127.951386 0.015998a15.997923 15.997923 0 1 1 0 31.995846zM735.970919 767.932289l-127.983382-0.015998a15.997923 15.997923 0 1 1 0-31.995846l127.983382 0.015998a15.997923 15.997923 0 1 1 0 31.995846zM192.057543 1007.869134a15.997923 15.997923 0 0 1-15.997923-15.997922L176.043622 847.937901a15.997923 15.997923 0 1 1 31.995845 0L208.055465 991.871212a15.997923 15.997923 0 0 1-15.997922 15.997922z"
    p-id="2076"></path>
  <path
    d="M208.055465 1023.867057c-17.645709 0-31.995846-14.350137-31.995845-31.995845a15.997923 15.997923 0 1 1 31.995845 0v0.031996a15.965927 15.965927 0 1 1 0 31.963849zM815.960533 1023.867057a15.997923 15.997923 0 1 1 0-31.995845h0.031995A15.965927 15.965927 0 1 1 847.956378 991.871212c0 17.645709-14.350137 31.995846-31.995845 31.995845z"
    p-id="2077"></path>
  <path
    d="M831.958455 1007.869134a15.997923 15.997923 0 0 1-15.997922-15.997922v-143.949309a15.997923 15.997923 0 1 1 31.995845 0V991.871212a15.997923 15.997923 0 0 1-15.997923 15.997922z"
    p-id="2078"></path>
  <path
    d="M815.960533 1023.867057H208.055465a15.997923 15.997923 0 1 1 0-31.995845H815.960533a15.997923 15.997923 0 1 1 0 31.995845zM416.012463 767.932289a15.997923 15.997923 0 0 1-15.997922-15.997923v-83.989095a15.997923 15.997923 0 1 1 31.995845 0v83.989095a15.997923 15.997923 0 0 1-15.997923 15.997923zM607.987537 767.916291a15.997923 15.997923 0 0 1-15.997923-15.997923v-83.973097a15.997923 15.997923 0 1 1 31.995845 0v83.973097a15.997923 15.997923 0 0 1-15.997922 15.997923z"
    p-id="2079"></path>
  <path
    d="M512 703.9246c-141.133675 0-255.966764-114.83309-255.966764-255.966765a15.997923 15.997923 0 1 1 31.995845 0c0 123.503964 100.466955 223.970919 223.970919 223.970919s223.970919-100.466955 223.970919-223.970919a15.997923 15.997923 0 1 1 31.995845 0c0 141.133675-114.83309 255.966764-255.966764 255.966765z"
    p-id="2080"></path>
  <path
    d="M272.031158 463.955758a15.997923 15.997923 0 0 1-15.997922-15.997923v-72.278615a15.997923 15.997923 0 1 1 31.995845 0v72.278615a15.997923 15.997923 0 0 1-15.997923 15.997923zM751.968842 463.955758a15.997923 15.997923 0 0 1-15.997923-15.997923V398.828215a15.997923 15.997923 0 1 1 31.995845 0v49.12962a15.997923 15.997923 0 0 1-15.997922 15.997923zM799.96261 351.890309a15.997923 15.997923 0 0 1-15.997923-15.997923c0-149.964528-122.000159-271.964687-271.964687-271.964687s-271.964687 122.000159-271.964687 271.964687a15.997923 15.997923 0 1 1-31.995846 0c0-167.610237 136.350296-303.960533 303.960533-303.960532s303.960533 136.350296 303.960533 303.960532a15.997923 15.997923 0 0 1-15.997923 15.997923z"
    p-id="2081"></path>
  <path
    d="M224.03739 671.928754a15.997923 15.997923 0 0 1-15.997923-15.997923V335.892386a15.997923 15.997923 0 1 1 31.995846 0v320.038445a15.997923 15.997923 0 0 1-15.997923 15.997923z"
    p-id="2082"></path>
  <path
    d="M799.96261 671.848765a15.997923 15.997923 0 0 1-15.997923-15.997923v-319.958456a15.997923 15.997923 0 1 1 31.995846 0v319.958456a15.997923 15.997923 0 0 1-15.997923 15.997923z"
    p-id="2083"></path>
  <path
    d="M368.018695 303.896541a15.997923 15.997923 0 0 1-15.997923-15.997923V89.556372a15.997923 15.997923 0 1 1 31.995846 0v198.342246a15.997923 15.997923 0 0 1-15.997923 15.997923z"
    p-id="2084"></path>
  <path
    d="M224.03739 399.884078a15.997923 15.997923 0 1 1 0-31.995846c70.566837 0 127.983382-57.416545 127.983382-127.983382a15.997923 15.997923 0 1 1 31.995846 0c0 88.212546-71.766682 159.979228-159.979228 159.979228z"
    p-id="2085"></path>
  <path
    d="M256.033236 703.9246c-26.460564 0-47.993768-21.533204-47.993769-47.993769a15.997923 15.997923 0 1 1 31.995846 0 15.997923 15.997923 0 0 0 15.997923 15.997923 15.997923 15.997923 0 1 1 0 31.995846z"
    p-id="2086"></path>
  <path
    d="M416.012463 703.9246H256.033236a15.997923 15.997923 0 1 1 0-31.995846h159.979227a15.997923 15.997923 0 1 1 0 31.995846z"
    p-id="2087"></path>
  <path
    d="M767.966764 703.9246a15.997923 15.997923 0 1 1 0-31.995846 15.997923 15.997923 0 0 0 15.997923-15.997923 15.997923 15.997923 0 1 1 31.995846 0c0 26.460564-21.533204 47.993768-47.993769 47.993769z"
    p-id="2088"></path>
  <path
    d="M767.966764 703.9246H607.987537a15.997923 15.997923 0 1 1 0-31.995846h159.979227a15.997923 15.997923 0 1 1 0 31.995846z"
    p-id="2089"></path>
  <path
    d="M799.96261 415.882c-251.183385 0-447.941838-77.301963-447.941838-175.97715a15.997923 15.997923 0 1 1 31.995846 0c0 69.54297 167.130299 143.981305 415.945992 143.981305a15.997923 15.997923 0 1 1 0 31.995845z"
    p-id="2090"></path>
  <path
    d="M512 815.926057c-90.468253 0-110.353671-56.520661-111.153567-58.936347a15.997923 15.997923 0 0 1 30.284067-10.334658c0.719907 1.919751 15.006052 37.259162 80.885498 37.259162 66.599352 0 80.693522-36.683237 80.821506-37.051189a15.997923 15.997923 0 1 1 30.348059 10.126685c-0.831892 2.415686-20.71731 58.936347-111.185563 58.936347z"
    p-id="2091"></path>
  <path
    d="M639.983382 1023.803066a15.949929 15.949929 0 0 1-11.310531-4.687392L512 902.442823l-116.672851 116.672851a15.981925 15.981925 0 1 1-22.621063-22.621063l127.983383-127.983382a15.981925 15.981925 0 0 1 22.621062 0l127.983383 127.983382A15.981925 15.981925 0 0 1 639.983382 1023.803066z"
    p-id="2092"></path>
</svg>
