<svg xmlns="http://www.w3.org/2000/svg" viewBox="0 0 1024 1024">
  <title>female</title>
  <defs>
    <style type="text/css"></style>
  </defs>
  <path
    d="M429.088 322.184c-74.184 74.184-74.184 196.36 0 272.728 74.184 74.184 196.368 74.184 272.728 0 74.184-74.184 74.184-196.368 0-272.728a194.928 194.928 0 0 0-272.728 0z"
    fill="#FF8B8B" p-id="5340"></path>
  <path
    d="M512 32C245.816 32 32 245.816 32 512s213.816 480 480 480 480-213.816 480-480S778.184 32 512 32z m222.544 595.64c-87.272 87.272-226.912 93.816-322.912 15.272l-34.912 34.912 85.088 85.088c8.728 8.728 8.728 24 0 34.912-8.728 10.912-24 8.728-34.912 0L341.816 712.728l-48 52.36c-8.728 8.728-24 8.728-34.912 0-8.728-8.728-8.728-24 0-34.912L309.096 680 224 594.912c-8.728-8.728-8.728-24 0-34.912 8.728-8.728 24-8.728 34.912 0L344 645.088l34.912-34.912c-76.368-93.816-72-233.456 15.272-322.912 93.816-93.816 246.544-93.816 340.36 0 93.824 96.008 93.824 246.552 0 340.376z"
    fill="#FF8B8B" p-id="5341"></path>
</svg>
