<svg xmlns="http://www.w3.org/2000/svg" viewBox="0 0 1024 1024">
  <title>search</title>
  <defs>
    <style type="text/css"></style>
  </defs>
  <path
    d="M967.503448 976.331034L838.62069 847.448276c30.013793-35.310345 47.668966-79.448276 47.668965-128.882759 0-109.462069-88.275862-197.737931-197.737931-197.737931s-197.737931 88.275862-197.737931 197.737931 88.275862 197.737931 197.737931 197.737931c38.841379 0 75.917241-12.358621 107.696552-31.77931l132.413793 130.648276c10.593103 10.593103 28.248276 10.593103 40.606897 0 10.593103-10.593103 10.593103-28.248276-1.765518-38.84138zM547.310345 718.565517c0-77.682759 63.558621-141.241379 141.241379-141.241379s141.241379 63.558621 141.241379 141.241379-63.558621 141.241379-141.241379 141.24138-141.241379-63.558621-141.241379-141.24138z"
    fill="#FF764C" p-id="7621"></path>
  <path
    d="M441.37931 711.503448c0-130.648276 109.462069-236.57931 247.172414-236.57931 91.806897 0 171.255172 47.668966 213.627586 118.289655V54.731034C900.413793 24.717241 875.696552 0 843.917241 0H134.17931C102.4 0 77.682759 24.717241 77.682759 54.731034v796.248276c0 30.013793 26.482759 54.731034 56.496551 54.731035H547.310345c-65.324138-42.372414-105.931034-114.758621-105.931035-194.206897zM250.703448 169.489655h471.393104v56.496552H250.703448V169.489655z m-1.765517 112.993104h471.393103v56.496551H248.937931V282.482759z m144.772414 284.248275h-143.006897v-56.496551h151.834483c-5.296552 17.655172-8.827586 35.310345-8.827586 56.496551z m-144.772414-114.75862v-56.496552h241.875862c-24.717241 14.124138-45.903448 33.544828-63.558621 56.496552H248.937931z"
    fill="#FF764C" p-id="7622"></path>
</svg>
