<svg xmlns="http://www.w3.org/2000/svg" viewBox="0 0 1024 1024">
  <title>message</title>
  <defs>
    <style type="text/css"></style>
  </defs>
  <path
    d="M627.76727281 775.80390607l-116.94545437 116.94545438-116.90181844-116.94545438H184.72727281a87.27272719 87.27272719 0 0 1-87.27272718-87.27272719V201.63663327a87.27272719 87.27272719 0 0 1 87.27272718-87.2727272h652.23272719a87.27272719 87.27272719 0 0 1 87.27272719 87.2727272v486.89454561a87.27272719 87.27272719 0 0 1-87.27272719 87.27272719h-209.19272719zM293.81818156 507.09117888a65.45454562 65.45454562 0 1 0 0-130.90909124 65.45454562 65.45454562 0 0 0 0 130.90909124z m201.8181825 0a65.45454562 65.45454562 0 1 0 0-130.90909124 65.45454562 65.45454562 0 0 0 0 130.90909124z m201.81818157 0a65.45454562 65.45454562 0 1 0-1e-8-130.90909124 65.45454562 65.45454562 0 0 0 0 130.90909124z"
    fill="#00A1D9" p-id="6418"></path>
</svg>
