<svg xmlns="http://www.w3.org/2000/svg" viewBox="0 0 1024 1024">
  <title>male</title>
  <defs>
    <style type="text/css"></style>
  </defs>
  <path d="M0 512a512 512 0 1 0 1024 0A512 512 0 1 0 0 512z" fill="#4EBBFF" p-id="10424"></path>
  <path
    d="M757.76 267.118c-7.314-7.315-14.629-10.972-21.943-10.972H494.885c-18.286 0-29.184 14.629-29.184 29.257 0 18.213 14.628 29.184 29.257 29.184h171.52l-135.095 138.68c-69.34-51.128-160.622-43.813-222.647 18.285-69.34 69.34-69.34 178.834 0 244.517 69.34 69.339 178.834 69.339 244.59 0a172.47 172.47 0 0 0 18.285-222.647L706.56 358.4v171.52c0 18.286 14.629 29.257 29.184 29.257 18.286 0 29.257-14.628 29.257-29.257V288.987c3.657-10.971 0-18.285-7.314-21.942zM513.17 675.986c-43.885 43.74-116.809 43.74-164.279 0-43.812-43.885-43.812-116.882 0-164.279 43.813-43.885 116.81-43.885 164.28 0 43.812 43.74 43.812 116.81 0 164.206z"
    fill="#FFFFFF" p-id="10425"></path>
</svg>
