<svg xmlns="http://www.w3.org/2000/svg" viewBox="0 0 1024 1024">
  <title>add</title>
  <defs>
    <style type="text/css"></style>
  </defs>
  <path
    d="M916.6 418.6h-92.9v-92.9c0-14-11.3-25.3-25.3-25.3s-25.3 11.3-25.3 25.3v92.9h-92.9c-14 0-25.3 11.3-25.3 25.3s11.3 25.3 25.3 25.3h92.9v92.9c0 14 11.3 25.3 25.3 25.3s25.3-11.3 25.3-25.3v-92.9h92.9c14 0 25.3-11.3 25.3-25.3 0.1-14-11.3-25.3-25.3-25.3zM523.2 570.5H347.5C200.2 570.5 80.7 690 80.7 837.3v17.6c0 29.5 23.9 53.4 53.4 53.4h602.5c29.5 0 53.4-23.9 53.4-53.4v-17.6c0-147.3-119.5-266.8-266.8-266.8z m-86.4-74.3c95.8 0 173.6-112 173.6-208s-77.8-174-173.6-174c-95.9 0-173.6 77.9-173.6 174s77.7 208 173.6 208z"
    fill="#1296db" p-id="4012"></path>
</svg>
